# xmcd
#
# Track frame offsets: 
#        150
#        17095
#        36106
#        52973
#        69130
#        87684
#        104156
#        121934
#        135234
#        156105
#
# Disc length: 2287 seconds
#
# Revision: 3
# Processed by: cddbd v1.5.2PL0 Copyright (c) Steve Scherf et al.
# Submitted via: ExactAudioCopyFreeDBPlugin 1.0
#
DISCID=7d08ed0a
DTITLE=Shari Ulrich - Find Our Way
DYEAR=2010
DGENRE=Folk
TTITLE0=Find Our Way
TTITLE1=Why Can't We Get Along
TTITLE2=By the Grace of Goodbye
TTITLE3=Everlasting Great Regret
TTITLE4=Life Goes On
TTITLE5=Living Water
TTITLE6=(Now You're) Gone
TTITLE7=What She Left For Us
TTITLE8=Rolling River
TTITLE9=(You Will Always Be) My Friend
EXTD=
EXTT0=
EXTT1=
EXTT2=
EXTT3=
EXTT4=
EXTT5=
EXTT6=
EXTT7=
EXTT8=
EXTT9=
PLAYORDER=
